<svg width="301" height="85" viewBox="0 0 301 85" fill="none" xmlns="http://www.w3.org/2000/svg">
<path d="M51.7 42.4C51.7 44.6 51.1 47.7 44.2 47.9C43.7 47.9 43.1 47.8 42.6 47.7C41.7 47.5 40.9 47.2 40.1 46.9C38.9 46.5 37.8 46 36.6 45.5C33.5 44.1 30.6 42.5 27.9 40.5L27.7 40.3L27.6 40.2C27.6 40.2 27.6 40.2 27.5 40.1L27.4 40C25.8 38.8 23.2 35.6 23.2 33.2C23.2 28.8 24.9 26.6 26.6 27.5C28.9 28.8 31.1 30.3 33.1 31.9C33.8 32.4 34.5 32.9 35.3 33.3C37.3 34.5 39.4 35.6 41.6 36.5L42.5 36.9H42.6C44.9 38.1 51.7 40.3 51.7 42.4Z" fill="#991E20"/>
<path d="M55.7 44.9C55.6 49.1 46.9 59.9 43.1 62.3C41.6 63.1 39.8 63.2 38.2 62.4C37 61.6 35.9 60.6 34.9 59.6C34.2 58.8 34.2 57.6 35 56.8C36.4 55.5 37.7 54.2 38.9 52.8C41.1 50.2 43.1 47.4 44.7 44.4C46.1 41.9 45.2 38.7 42.6 37.3C44.1 37.9 45.7 38.4 47.2 38.9C51 39.7 55.6 39.8 55.7 44.9Z" fill="url(#paint0_linear_6_260)"/>
<path d="M60.2 28.7C60.2 28.8 60.2 28.9 60.2 29.1V29.2C60.1 30.4 60 31.7 59.8 32.9C59.6 34 58.6 34.7 57.5 34.5C57.4 34.5 57.3 34.5 57.2 34.4C49.8 31.7 41.8 30.8 33.9 31.9L33.1 32C31.4 32.2 29.7 32.6 28.1 33C26.7 33.4 25.7 34.7 25.7 36.1C25.7 37.7 26.4 39.1 27.6 40.1L27.7 40.2C27.2 39.8 26.6 39.4 26 38.9C23.1 36.5 21.3 33 21 29.2C21 29.2 21 28.8 21 28.7C21 26.7 22.2 24.8 24 23.9L24.3 23.8H24.4C32.8 20.8 41.8 20.3 50.5 22.1C52.5 22.5 54.4 23.1 56.3 23.7L57 23.9C58.9 24.7 60.2 26.6 60.2 28.7Z" fill="url(#paint1_linear_6_260)"/>
<path d="M70.8 50.9L75.5 48.1C76.4 50.8 79.1 52.6 81.9 52.4C85.2 52.4 86.4 51 86.4 49.4C86.4 47.3 84.5 46.5 80.4 45.3C76.3 44.1 72 42.4 72 37C72 31.6 76.4 28.7 81.2 28.7C85.5 28.6 89.4 31.1 91.2 35L86.6 37.7C85.8 35.5 83.6 34 81.2 34.1C78.9 34.1 77.5 35.3 77.5 36.9C77.5 38.5 78.6 39.5 82.8 40.8C87.2 42.2 92 43.7 92 49.4C92 54.6 87.8 57.8 81.8 57.8C76 57.9 72.3 55.1 70.8 50.9Z" fill="#16103E"/>
<path d="M95.3 28.1H100.5V57.3H95.3V28.1Z" fill="#16103E"/>
<path d="M103.9 47.3C103.9 41.5 108.6 36.7 114.5 36.7C120.4 36.7 125.1 41.4 125.1 47.3C125.1 53.2 120.4 57.9 114.5 57.9C108.7 58 104 53.3 103.9 47.6C103.9 47.5 103.9 47.4 103.9 47.3ZM119.9 47.3C119.8 44.3 117.3 41.9 114.3 42C111.3 42.1 108.9 44.6 109 47.6C109.1 50.5 111.5 52.9 114.4 52.9C117.3 53 119.8 50.6 119.8 47.7C119.9 47.6 119.9 47.4 119.9 47.3Z" fill="#16103E"/>
<path d="M135.2 42.3V50.6C135.2 52.8 136.8 52.8 139.7 52.6V57.3C132.5 58.1 130 56 130 50.6V42.3H126.5V37.3H130V33.3L135.2 31.7V37.3H139.7V42.3H135.2Z" fill="#16103E"/>
<path d="M153.1 53.2C154.8 53.3 156.5 52.5 157.6 51.2L161.8 53.6C159.8 56.4 156.5 58 153.1 57.9C146.4 57.9 142.1 53.3 142.1 47.3C141.9 41.7 146.3 36.9 151.9 36.7C152.2 36.7 152.4 36.7 152.7 36.7C158.6 36.7 162.8 41.4 162.8 47.3C162.8 48 162.7 48.7 162.6 49.4H147.5C148.2 52.1 150.4 53.2 153.1 53.2ZM157.6 45.4C157.2 43 155 41.3 152.6 41.4C150.1 41.2 147.9 42.9 147.4 45.4H157.6Z" fill="#16103E"/>
<path d="M186.4 37.3V56.3C186.4 62.9 181.2 65.8 176 65.8C171.7 65.8 168.3 64.2 166.5 60.9L170.9 58.4C171.7 60 173.1 61.2 176.1 61.2C179.3 61.2 181.3 59.4 181.3 56.3V54.2C179.8 56.2 177.4 57.3 174.9 57.2C169.2 57.2 164.7 52.6 164.7 47C164.7 41.3 169.3 36.8 174.9 36.8C177.4 36.7 179.8 37.8 181.3 39.8V37.4H186.4V37.3ZM181.4 47C181.5 43.9 179 41.3 175.9 41.3C172.8 41.2 170.2 43.7 170.2 46.8C170.1 49.9 172.6 52.5 175.7 52.5H175.8C178.7 52.6 181.2 50.3 181.4 47.4C181.4 47.2 181.4 47.1 181.4 47Z" fill="#16103E"/>
<path d="M202.2 36.9V42.7C199.5 42.4 196.1 43.6 196.1 47.8V57.4H190.9V37.4H196.1V40.8C197.1 38.3 199.5 36.7 202.2 36.9Z" fill="#16103E"/>
<path d="M225.2 37.3V57.3H220V54.9C218.4 56.8 216 57.9 213.5 57.8C208.2 57.8 203.8 53.2 203.8 47.2C203.8 41.2 208.2 36.6 213.5 36.6C216 36.5 218.4 37.6 220 39.5V37.1H225.2V37.3ZM220 47.3C219.9 44.2 217.4 41.8 214.4 41.9C211.3 42 208.9 44.5 209 47.5C209.1 50.5 211.5 52.9 214.5 52.9C217.5 53 220 50.7 220.1 47.7C220 47.6 220 47.5 220 47.3Z" fill="#16103E"/>
<path d="M236.6 42.3V50.6C236.6 52.8 238.2 52.8 241.1 52.6V57.3C233.9 58.1 231.4 56 231.4 50.6V42.3H227.9V37.3H231.4V33.3L236.6 31.7V37.3H241.1V42.3H236.6Z" fill="#16103E"/>
<path d="M243.3 47.3C243.3 41.5 248 36.7 253.9 36.7C259.8 36.7 264.5 41.4 264.5 47.3C264.5 53.1 259.8 57.9 253.9 57.9C248.1 58 243.4 53.3 243.4 47.5C243.3 47.4 243.3 47.4 243.3 47.3ZM259.3 47.3C259.2 44.3 256.7 41.9 253.7 42C250.7 42.1 248.3 44.6 248.4 47.6C248.5 50.5 250.9 52.8 253.8 52.9C256.7 53 259.2 50.7 259.3 47.7C259.3 47.6 259.3 47.4 259.3 47.3Z" fill="#16103E"/>
<path d="M279.1 36.9V42.7C276.4 42.4 273 43.6 273 47.8V57.4H267.8V37.4H273V40.8C274 38.3 276.4 36.7 279.1 36.9Z" fill="#16103E"/>
<defs>
<linearGradient id="paint0_linear_6_260" x1="47.7151" y1="44.6922" x2="36.1651" y2="74.8922" gradientUnits="userSpaceOnUse">
<stop stop-color="#EB1D25"/>
<stop offset="1" stop-color="#991B1E"/>
</linearGradient>
<linearGradient id="paint1_linear_6_260" x1="45.2507" y1="39.769" x2="11.5007" y2="-35.791" gradientUnits="userSpaceOnUse">
<stop stop-color="#EB1D25"/>
<stop offset="1" stop-color="#991B1E"/>
</linearGradient>
</defs>
</svg>
